<?xml version="1.0" encoding="utf-8"?><!DOCTYPE svg PUBLIC "-//W3C//DTD SVG 1.1//EN" "http://www.w3.org/Graphics/SVG/1.1/DTD/svg11.dtd"><svg xmlns="http://www.w3.org/2000/svg" viewBox="0 0 65 65" shape-rendering="crispEdges"><path fill="#ffffff" d="M0 0h65v65H0z"/><path stroke="#071323" d="M2 2.5h7m1 0h1m5 0h4m1 0h8m2 0h1m1 0h1m1 0h3m1 0h1m2 0h1m1 0h1m1 0h2m5 0h2m1 0h7M2 3.5h1m5 0h1m1 0h1m2 0h2m1 0h1m1 0h1m2 0h2m3 0h8m2 0h1m1 0h3m1 0h1m2 0h1m1 0h2m4 0h2m1 0h1m5 0h1M2 4.5h1m1 0h3m1 0h1m1 0h2m1 0h1m1 0h1m2 0h1m1 0h4m6 0h5m1 0h2m2 0h3m1 0h1m1 0h1m1 0h3m1 0h3m1 0h1m1 0h3m1 0h1M2 5.5h1m1 0h3m1 0h1m2 0h3m2 0h2m1 0h2m2 0h3m2 0h1m1 0h2m4 0h2m1 0h1m2 0h1m1 0h2m1 0h2m1 0h3m1 0h1m1 0h1m1 0h3m1 0h1M2 6.5h1m1 0h3m1 0h1m2 0h2m5 0h2m2 0h1m1 0h1m2 0h1m1 0h6m1 0h1m2 0h1m1 0h5m3 0h5m2 0h1m1 0h3m1 0h1M2 7.5h1m5 0h1m1 0h1m6 0h2m4 0h1m1 0h1m4 0h1m3 0h3m1 0h1m1 0h1m4 0h1m2 0h1m1 0h3m3 0h1m5 0h1M2 8.5h7m1 0h1m1 0h1m1 0h1m1 0h1m1 0h1m1 0h1m1 0h1m1 0h1m1 0h1m1 0h1m1 0h1m1 0h1m1 0h1m1 0h1m1 0h1m1 0h1m1 0h1m1 0h1m1 0h1m1 0h1m1 0h1m1 0h1m1 0h1m1 0h7M10 9.5h1m1 0h1m2 0h3m3 0h1m1 0h2m2 0h1m2 0h1m3 0h1m2 0h1m1 0h2m1 0h2m2 0h1m1 0h1m2 0h2M4 10.5h3m1 0h1m1 0h1m1 0h1m1 0h2m1 0h1m1 0h2m3 0h2m4 0h5m2 0h1m2 0h2m3 0h1m1 0h5m1 0h5m2 0h3M4 11.5h1m5 0h3m1 0h2m1 0h3m2 0h2m1 0h1m1 0h1m2 0h3m3 0h3m2 0h1m1 0h1m1 0h2m3 0h2m3 0h2m1 0h3M2 12.5h2m4 0h1m1 0h3m1 0h1m3 0h1m2 0h1m1 0h1m2 0h1m1 0h4m2 0h1m1 0h3m1 0h1m3 0h1m2 0h6m1 0h1m2 0h6M2 13.5h1m6 0h1m4 0h3m2 0h1m1 0h1m1 0h3m2 0h4m1 0h1m2 0h1m1 0h3m1 0h1m3 0h2m1 0h1m2 0h1m1 0h2m1 0h2M3 14.5h1m1 0h1m1 0h2m11 0h3m1 0h3m3 0h4m1 0h3m4 0h4m1 0h2m1 0h2m1 0h3m4 0h3M5 15.5h3m2 0h2m2 0h1m3 0h1m1 0h1m2 0h1m2 0h2m2 0h3m1 0h1m1 0h2m3 0h1m1 0h3m9 0h7M2 16.5h2m2 0h1m1 0h2m1 0h3m4 0h1m4 0h4m1 0h1m3 0h1m1 0h3m1 0h2m6 0h1m1 0h1m1 0h1m1 0h2m7 0h2M3 17.5h1m3 0h1m1 0h1m1 0h2m1 0h3m3 0h1m2 0h3m1 0h7m1 0h2m1 0h4m2 0h3m4 0h1m3 0h1m1 0h2m3 0h1M6 18.5h1m1 0h3m2 0h6m3 0h1m2 0h5m2 0h3m5 0h1m2 0h1m1 0h1m1 0h1m2 0h6m1 0h1m1 0h2m1 0h1M3 19.5h4m4 0h3m2 0h1m1 0h1m1 0h1m1 0h1m1 0h2m1 0h1m1 0h1m2 0h2m1 0h3m1 0h3m2 0h3m4 0h1m3 0h4m1 0h1m1 0h1M3 20.5h1m2 0h8m2 0h1m6 0h2m1 0h1m2 0h1m1 0h1m1 0h1m2 0h2m1 0h1m7 0h2m1 0h1m1 0h1m2 0h1m3 0h3M4 21.5h2m7 0h1m3 0h1m1 0h5m2 0h2m3 0h4m2 0h1m1 0h3m1 0h1m2 0h2m3 0h8M4 22.5h1m2 0h2m1 0h1m1 0h2m1 0h1m1 0h4m4 0h1m2 0h1m3 0h2m1 0h1m2 0h1m2 0h3m1 0h1m1 0h6m1 0h4m1 0h3M2 23.5h1m1 0h2m3 0h2m4 0h2m1 0h1m1 0h1m1 0h1m1 0h1m1 0h7m3 0h1m1 0h1m1 0h1m2 0h4m3 0h1m4 0h2m3 0h2M4 24.5h1m2 0h2m1 0h2m1 0h3m1 0h5m3 0h1m1 0h1m2 0h2m6 0h3m1 0h1m2 0h4m1 0h1m1 0h2m1 0h1m2 0h5M2 25.5h2m2 0h2m1 0h1m3 0h2m1 0h1m1 0h5m1 0h2m2 0h5m1 0h2m1 0h1m1 0h1m1 0h4m1 0h3m3 0h1m9 0h1M3 26.5h1m3 0h2m1 0h1m5 0h1m3 0h2m2 0h5m3 0h1m3 0h3m1 0h2m2 0h2m3 0h2m1 0h2m1 0h1m1 0h2m1 0h3M7 27.5h1m1 0h2m3 0h4m1 0h1m1 0h7m2 0h3m1 0h2m2 0h2m1 0h4m4 0h3m2 0h1m1 0h1m1 0h1m1 0h2M2 28.5h3m1 0h1m1 0h2m1 0h2m2 0h3m1 0h1m2 0h1m1 0h4m1 0h2m2 0h2m1 0h1m1 0h3m1 0h1m2 0h2m1 0h3m1 0h3m2 0h2m1 0h3M3 29.5h5m1 0h1m1 0h1m3 0h3m1 0h2m1 0h2m6 0h2m1 0h2m1 0h2m3 0h1m1 0h4m1 0h1m5 0h1m1 0h1m1 0h1m2 0h2M3 30.5h8m2 0h1m1 0h1m1 0h2m3 0h1m1 0h1m1 0h1m1 0h1m1 0h7m2 0h1m1 0h1m1 0h3m3 0h3m2 0h7M3 31.5h1m2 0h1m3 0h1m1 0h1m2 0h1m2 0h2m1 0h1m1 0h3m1 0h1m1 0h2m3 0h1m2 0h1m2 0h7m2 0h1m4 0h1m3 0h1M3 32.5h2m1 0h1m1 0h1m1 0h2m3 0h2m1 0h4m1 0h1m3 0h1m1 0h2m1 0h1m1 0h1m3 0h2m5 0h2m1 0h2m1 0h1m2 0h1m1 0h1m1 0h1m2 0h2M2 33.5h2m1 0h2m3 0h1m1 0h2m1 0h3m1 0h1m1 0h1m3 0h6m3 0h3m1 0h2m1 0h2m1 0h1m1 0h2m5 0h2m3 0h1m3 0h1M3 34.5h1m2 0h5m5 0h1m2 0h1m2 0h2m3 0h1m2 0h9m3 0h2m1 0h1m1 0h1m1 0h2m3 0h9M2 35.5h1m1 0h2m1 0h1m1 0h8m1 0h1m2 0h6m3 0h1m1 0h2m2 0h1m2 0h2m1 0h6m3 0h1m1 0h1m3 0h1M2 36.5h1m1 0h1m3 0h3m2 0h1m1 0h2m2 0h1m3 0h1m4 0h2m1 0h2m1 0h2m1 0h2m1 0h3m2 0h2m1 0h2m1 0h2m2 0h3m1 0h1m2 0h1M4 37.5h4m2 0h2m5 0h1m4 0h3m1 0h3m2 0h1m2 0h3m1 0h4m3 0h1m2 0h1m2 0h2m1 0h1m4 0h1m1 0h1M2 38.5h1m1 0h1m2 0h2m3 0h3m1 0h2m1 0h6m1 0h5m1 0h2m3 0h4m1 0h1m1 0h1m3 0h4m1 0h3m1 0h4m1 0h1M2 39.5h1m1 0h2m1 0h1m3 0h1m1 0h1m1 0h1m1 0h1m1 0h1m1 0h1m1 0h3m4 0h2m1 0h1m2 0h2m3 0h2m1 0h2m1 0h1m1 0h1m1 0h1m1 0h1m2 0h2M2 40.5h1m3 0h1m1 0h3m2 0h2m1 0h3m2 0h4m1 0h1m2 0h4m3 0h5m1 0h1m4 0h2m1 0h1m1 0h1m1 0h4m3 0h2M2 41.5h1m2 0h2m3 0h1m1 0h2m1 0h2m1 0h2m3 0h1m3 0h2m1 0h2m2 0h2m1 0h1m3 0h1m1 0h1m1 0h2m1 0h1m2 0h1m2 0h1m2 0h2m2 0h2M2 42.5h5m1 0h1m1 0h1m6 0h1m2 0h2m1 0h1m1 0h1m1 0h1m1 0h1m2 0h2m4 0h1m1 0h2m1 0h3m1 0h5m1 0h2m1 0h1m1 0h5M4 43.5h3m5 0h1m1 0h2m2 0h3m2 0h2m1 0h2m1 0h1m1 0h1m1 0h4m2 0h1m1 0h4m1 0h1m1 0h4m1 0h5m1 0h1M6 44.5h3m1 0h1m1 0h2m2 0h2m2 0h2m1 0h4m3 0h1m3 0h2m1 0h1m1 0h1m5 0h3m1 0h2m1 0h1m1 0h1m1 0h3m2 0h2M3 45.5h4m2 0h1m2 0h1m1 0h3m1 0h2m1 0h1m1 0h3m2 0h1m2 0h1m3 0h1m1 0h2m1 0h1m1 0h2m1 0h2m1 0h2m1 0h2m2 0h2m2 0h1m1 0h1M2 46.5h1m2 0h6m3 0h3m1 0h1m2 0h2m2 0h1m2 0h1m4 0h2m2 0h4m2 0h2m3 0h1m1 0h2m1 0h6m2 0h2M3 47.5h4m3 0h1m1 0h2m3 0h2m1 0h1m2 0h1m3 0h2m2 0h1m6 0h2m3 0h2m1 0h2m1 0h1m6 0h2m2 0h1M2 48.5h1m1 0h1m2 0h2m3 0h1m1 0h1m1 0h2m1 0h1m2 0h1m2 0h3m8 0h3m2 0h1m5 0h2m1 0h1m1 0h2m1 0h2m1 0h2m1 0h2M2 49.5h2m1 0h1m1 0h1m3 0h2m3 0h3m1 0h2m1 0h1m4 0h1m3 0h3m3 0h9m3 0h1m4 0h1m2 0h1m2 0h1M2 50.5h1m1 0h1m2 0h2m1 0h1m3 0h1m1 0h3m3 0h1m3 0h1m1 0h1m2 0h1m2 0h2m2 0h3m3 0h2m1 0h1m1 0h1m1 0h6m1 0h5M2 51.5h1m1 0h4m2 0h5m1 0h1m1 0h2m1 0h1m6 0h6m3 0h1m5 0h4m9 0h2M4 52.5h5m6 0h1m5 0h2m1 0h1m8 0h3m1 0h2m3 0h1m4 0h3m2 0h2m1 0h2m4 0h2M2 53.5h3m1 0h1m4 0h2m1 0h1m2 0h4m1 0h1m3 0h7m1 0h1m2 0h2m2 0h2m1 0h1m1 0h1m1 0h1m5 0h1m2 0h1M2 54.5h4m2 0h4m1 0h2m2 0h2m1 0h1m4 0h13m1 0h2m2 0h3m2 0h3m2 0h6m1 0h2M10 55.5h1m4 0h5m2 0h2m2 0h2m2 0h1m3 0h1m4 0h1m4 0h1m4 0h3m2 0h1m3 0h1m2 0h1M2 56.5h7m3 0h1m2 0h1m6 0h3m1 0h1m1 0h3m1 0h1m1 0h2m1 0h1m4 0h4m1 0h2m1 0h5m1 0h1m1 0h1m2 0h2M2 57.5h1m5 0h1m5 0h1m2 0h1m2 0h2m1 0h1m1 0h2m2 0h2m3 0h1m2 0h3m2 0h2m2 0h2m1 0h1m1 0h4m3 0h1M2 58.5h1m1 0h3m1 0h1m1 0h1m2 0h1m6 0h1m1 0h2m1 0h2m1 0h1m1 0h6m1 0h1m1 0h1m3 0h1m1 0h1m1 0h2m1 0h2m1 0h6m1 0h2M2 59.5h1m1 0h3m1 0h1m1 0h1m6 0h3m1 0h7m1 0h1m1 0h1m1 0h1m3 0h1m1 0h1m2 0h3m2 0h1m1 0h3m1 0h2m3 0h2m2 0h1M2 60.5h1m1 0h3m1 0h1m1 0h1m1 0h1m1 0h1m2 0h2m1 0h1m6 0h4m4 0h1m1 0h2m3 0h2m1 0h5m1 0h2m2 0h3m4 0h1M2 61.5h1m5 0h1m2 0h3m4 0h2m1 0h4m2 0h1m1 0h4m6 0h1m1 0h3m2 0h1m1 0h1m2 0h1m2 0h3m2 0h1m2 0h1M2 62.5h7m2 0h2m2 0h1m1 0h1m6 0h2m5 0h1m1 0h4m1 0h3m2 0h3m2 0h4m1 0h1m1 0h1m1 0h6"/></svg>
